solid OpenSCAD_Model
  facet normal 0 0 -1
    outer loop
      vertex 0 -10.8 0
      vertex 99.8 8.15 0
      vertex 99.8 -8.15 0
    endloop
  endfacet
  facet normal -0 0 -1
    outer loop
      vertex 99.8 8.15 0
      vertex 0 -10.8 0
      vertex 0 10.8 0
    endloop
  endfacet
  facet normal -1 0 0
    outer loop
      vertex 0 10.8 0
      vertex 0 -7.75 5
      vertex 0 7.75 5
    endloop
  endfacet
  facet normal -1 0 -0
    outer loop
      vertex 0 -7.75 5
      vertex 0 10.8 0
      vertex 0 -10.8 0
    endloop
  endfacet
  facet normal 0.0243122 -0.853451 0.520605
    outer loop
      vertex 99.8 -5.7 3.7
      vertex 0 -7.75 5
      vertex 0 -10.8 0
    endloop
  endfacet
  facet normal 0.022134 -0.833575 0.551962
    outer loop
      vertex 99.8 -8.15 0
      vertex 99.8 -5.7 3.7
      vertex 0 -10.8 0
    endloop
  endfacet
  facet normal 0.022134 0.833575 0.551962
    outer loop
      vertex 99.8 5.7 3.7
      vertex 99.8 8.15 0
      vertex 0 10.8 0
    endloop
  endfacet
  facet normal 0.0243122 0.853451 0.520605
    outer loop
      vertex 99.8 5.7 3.7
      vertex 0 10.8 0
      vertex 0 7.75 5
    endloop
  endfacet
  facet normal 1 -0 0
    outer loop
      vertex 99.8 -5.7 3.7
      vertex 99.8 8.15 0
      vertex 99.8 5.7 3.7
    endloop
  endfacet
  facet normal 1 0 0
    outer loop
      vertex 99.8 8.15 0
      vertex 99.8 -5.7 3.7
      vertex 99.8 -8.15 0
    endloop
  endfacet
  facet normal 0.0130239 0 0.999915
    outer loop
      vertex 99.8 5.7 3.7
      vertex 97.8 3.7 3.72605
      vertex 99.8 -5.7 3.7
    endloop
  endfacet
  facet normal 0.013025 -1.06861e-06 0.999915
    outer loop
      vertex 99.8 5.7 3.7
      vertex 2 6.14999 4.97395
      vertex 97.8 3.7 3.72605
    endloop
  endfacet
  facet normal 0.0130239 0 0.999915
    outer loop
      vertex 2 6.14999 4.97395
      vertex 0 7.75 5
      vertex 2 -6.14999 4.97395
    endloop
  endfacet
  facet normal 0.013025 1.34966e-06 0.999915
    outer loop
      vertex 0 7.75 5
      vertex 2 6.14999 4.97395
      vertex 99.8 5.7 3.7
    endloop
  endfacet
  facet normal 0.0130239 -0 0.999915
    outer loop
      vertex 97.8 -3.7 3.72605
      vertex 99.8 -5.7 3.7
      vertex 97.8 3.7 3.72605
    endloop
  endfacet
  facet normal 0.013025 1.06861e-06 0.999915
    outer loop
      vertex 2 -6.14999 4.97395
      vertex 99.8 -5.7 3.7
      vertex 97.8 -3.7 3.72605
    endloop
  endfacet
  facet normal 0.013025 -1.34966e-06 0.999915
    outer loop
      vertex 2 -6.14999 4.97395
      vertex 0 -7.75 5
      vertex 99.8 -5.7 3.7
    endloop
  endfacet
  facet normal 0.0130239 -0 0.999915
    outer loop
      vertex 0 -7.75 5
      vertex 2 -6.14999 4.97395
      vertex 0 7.75 5
    endloop
  endfacet
  facet normal -0.0255656 -0.999673 0
    outer loop
      vertex 2 6.14999 1
      vertex 97.8 3.7 3.72605
      vertex 2 6.14999 4.97395
    endloop
  endfacet
  facet normal -0.0255656 -0.999673 -0
    outer loop
      vertex 97.8 3.7 3.72605
      vertex 2 6.14999 1
      vertex 97.8 3.7 1
    endloop
  endfacet
  facet normal 0 0 1
    outer loop
      vertex 2 6.14999 1
      vertex 97.8 -3.7 1
      vertex 97.8 3.7 1
    endloop
  endfacet
  facet normal 0 0 1
    outer loop
      vertex 97.8 -3.7 1
      vertex 2 6.14999 1
      vertex 2 -6.14999 1
    endloop
  endfacet
  facet normal -1 0 0
    outer loop
      vertex 97.8 -3.7 1
      vertex 97.8 3.7 3.72605
      vertex 97.8 3.7 1
    endloop
  endfacet
  facet normal -1 -0 0
    outer loop
      vertex 97.8 3.7 3.72605
      vertex 97.8 -3.7 1
      vertex 97.8 -3.7 3.72605
    endloop
  endfacet
  facet normal 1 -0 0
    outer loop
      vertex 2 -6.14999 4.97395
      vertex 2 6.14999 1
      vertex 2 6.14999 4.97395
    endloop
  endfacet
  facet normal 1 0 0
    outer loop
      vertex 2 6.14999 1
      vertex 2 -6.14999 4.97395
      vertex 2 -6.14999 1
    endloop
  endfacet
  facet normal -0.0255656 0.999673 0
    outer loop
      vertex 2 -6.14999 1
      vertex 97.8 -3.7 3.72605
      vertex 97.8 -3.7 1
    endloop
  endfacet
  facet normal -0.0255656 0.999673 0
    outer loop
      vertex 97.8 -3.7 3.72605
      vertex 2 -6.14999 1
      vertex 2 -6.14999 4.97395
    endloop
  endfacet
endsolid OpenSCAD_Model
